<svg id="Layer_1" data-name="Layer 1" xmlns="http://www.w3.org/2000/svg" viewBox="0 0 500 468.27"><path d="M279.39,234.66c-1.45,30.79-4.66,63.66-18.77,97.92q-.86,2.06-2.14,4.8A141,141,0,0,1,209.61,394c-8.36,5.64-16.29,10.83-18.77,12-12.06,5.7-33,15.4-61.61,17.17-11.38.72-48.65,2.52-83.45-19.75-7-4.5-19.73-12.82-30.32-28.55A91.88,91.88,0,0,1,1.71,342.12c0-.15-.07-.31-.1-.46-.15-.74-.28-1.46-.41-2.17s-.2-1.13-.27-1.67a3.06,3.06,0,0,0-.07-.4,2.32,2.32,0,0,1,0-.38q-.08-.36-.12-.75c0-.18,0-.37-.08-.57-.16-1.13-.27-2.18-.37-3.15a5.9,5.9,0,0,1,0-.84C0,329.33,0,327,0,324.91H101.84a46.4,46.4,0,0,0,5.39,7.19l.17.17c4.79,4.5,11.23,9.7,17.77,12.36,13.32,5.41,27.26,5.39,43.64-2.49,129-62.08,37.4-306.42,37.79-311.63.1-1.26.55-8.86,5.63-2.86C219.42,36.15,240.6,72,250,92.33c7.57,16.45,17.11,42.76,21.56,61.39A278.48,278.48,0,0,1,279.39,234.66Z" style="fill:#231f20"/><path d="M116,239.7c-7.23,4.53-26.54,26.64-20.93,58.95a110.94,110.94,0,0,0,3.28,14h-96c3.62-19.3,7.29-41.35,40.33-61.68C73,232.24,124,234.69,116,239.7Z" style="fill:#231f20"/><path d="M500,134.86a1.26,1.26,0,0,1-1.26,1.25c-55.93-.09-69.39.55-69.39.55-59.49,2.87-78.64,11.1-91.75,27.53C298.92,212.61,314.81,305.1,315.15,307v.07c5.57,55.42,26.36,87.64,32.63,96.77,2.77,4.05,20.81,29.87,42.3,39.06,20.17,8.6,35.06,9.31,35.06,9.31,1.84.1,3.12.09,3.16.4.27,1.88-37.57,23.1-82.53,12.92-17-3.85-36.53-15.06-51.09-25.69-10.89-7.94-22-18.39-28.66-27.72-6-8.36-19.59-25-17.59-29,1.9-3.9,10.49-16.42,11-17.23a126.14,126.14,0,0,0,8.23-13.66c.22-.47.48-.94.7-1.43A242.29,242.29,0,0,0,288,288.87a1.11,1.11,0,0,0,0-.19c.2-1,.39-2,.54-3,.79-4.6,1.49-9.26,2.07-13.94.14-1.13.25-2.3.35-3.48,1.25-10.9,2-21.61,2.52-32.07a299.84,299.84,0,0,0-7.35-84.2c-4.31-19.39-13.7-46.79-21.16-63.94C258.54,73.22,245.19,51,235.5,35.77a2,2,0,0,1-.11-.2c-.89-1.52-2.19-3.47-3.47-5.35,0-.06-.07-.12-.11-.17-1-1.52-2-3-2.76-4.14a1,1,0,0,0-.17-.25c-.71-1.15-1.35-2.08-2.38-3.5l-.91-1.27c-.85-1.29-1.06-2.62.24-3.48l5-2a2.34,2.34,0,0,1,.66-.31A297.79,297.79,0,0,1,274.57,4.86c29.27-4.65,121.23-18,179.9,36.87,6.15,5.74,34.83,32.61,41.68,62.6A143.45,143.45,0,0,1,500,134.86Z" style="fill:#231f20"/><path d="M498.28,153.83c-.41,4.35-12.89,47.91-55.32,77.79-53.31,37.53-115.31,19.72-115.31,19.72-2.61-.86-2.09-7.6-1.41-21.33,1-21.06,10.85-43.61,12.78-47.16,3-5.56,7.4-11.38,10.86-14.44,7.42-6.55,18.92-10.86,29.44-12.85,47.79-9.08,72.3-7.7,82.43-7.6,11,.11,27.09-.32,36.26,2C498.77,150.19,498.43,152.17,498.28,153.83Z" style="fill:#231f20"/></svg>